<?xml version="1.0"?>
<svg xmlns="http://www.w3.org/2000/svg" viewBox="17 -17 50 50">
    <path d="M 25 2 C 12.318 2 2 12.318 2 25 C 2 37.683 12.318 48 25 48 C 37.683 48 48 37.683 48 25 C 48 12.318 37.683 2 25 2 z M 25 7 C 34.925 7 43 15.075 43 25 C 43 34.925 34.925 43 25 43 C 15.075 43 7 34.925 7 25 C 7 15.075 15.075 7 25 7 z M 25 9 C 16.178 9 9 16.178 9 25 C 9 33.822 16.178 41 25 41 C 33.822 41 41 33.822 41 25 C 41 16.178 33.822 9 25 9 z M 19 16 C 20.304 16 21.403406 16.837 21.816406 18 L 28.183594 18 C 28.597594 16.837 29.696 16 31 16 C 32.657 16 34 17.343 34 19 C 34 20.657 32.657 22 31 22 C 29.696 22 28.596594 21.163 28.183594 20 L 21.816406 20 C 21.402406 21.163 20.304 22 19 22 C 17.343 22 16 20.657 16 19 C 16 17.343 17.343 16 19 16 z M 19.001953 28 C 20.305953 28 21.403406 28.837 21.816406 30 L 28.183594 30 C 28.596594 28.837 29.696 28 31 28 C 32.657 28 34 29.343 34 31 C 34 32.657 32.657 34 31 34 C 29.696 34 28.596594 33.163 28.183594 32 L 21.816406 32 C 21.403406 33.163 20.305953 34 19.001953 34 C 17.344953 34 16.001953 32.657 16.001953 31 C 16.001953 29.343 17.344953 28 19.001953 28 z" transform="translate(17 -17)"/>
</svg>
