<?xml version="1.0"?>
<svg xmlns="http://www.w3.org/2000/svg" viewBox="0 0 24 24">
    <path d="M 12 2 C 6.5 2 2 6.5 2 12 C 2 17.5 6.5 22 12 22 C 17.5 22 22 17.5 22 12 C 22 6.5 17.5 2 12 2 z M 12 4 C 16.4 4 20 7.6 20 12 C 20 16.4 16.4 20 12 20 C 7.6 20 4 16.4 4 12 C 4 7.6 7.6 4 12 4 z M 12 5 C 8.1 5 5 8.1 5 12 C 5 15.9 8.1 19 12 19 C 15.9 19 19 15.9 19 12 C 19 8.1 15.9 5 12 5 z M 9.5 8 C 10.3 8 11 8.7 11 9.5 C 11 10.3 10.3 11 9.5 11 C 8.7 11 8 10.3 8 9.5 C 8 8.7 8.7 8 9.5 8 z M 14.5 8 C 15.3 8 16 8.7 16 9.5 C 16 10.3 15.3 11 14.5 11 C 13.7 11 13 10.3 13 9.5 C 13 8.7 13.7 8 14.5 8 z M 9.5 13 C 10.3 13 11 13.7 11 14.5 C 11 15.3 10.3 16 9.5 16 C 8.7 16 8 15.3 8 14.5 C 8 13.7 8.7 13 9.5 13 z M 14.5 13 C 15.3 13 16 13.7 16 14.5 C 16 15.3 15.3 16 14.5 16 C 13.7 16 13 15.3 13 14.5 C 13 13.7 13.7 13 14.5 13 z"/>
</svg>
