<?xml version="1.0"?>
<svg xmlns="http://www.w3.org/2000/svg" viewBox="17 -17 50 50">
    <path style="line-height:normal;text-indent:0;text-align:start;text-decoration-line:none;text-decoration-style:solid;text-decoration-color:#000;text-transform:none;block-progression:tb;isolation:auto;mix-blend-mode:normal" d="M 25 2 C 12.309534 2 2 12.309534 2 25 C 2 37.690466 12.309534 48 25 48 C 37.690466 48 48 37.690466 48 25 C 48 12.364375 37.775144 2.104197 25.160156 2.015625 A 1.0001 1.0001 0 0 0 25 2 z M 25 4 C 36.609534 4 46 13.390466 46 25 C 46 36.609534 36.609534 46 25 46 C 13.390466 46 4 36.609534 4 25 C 4 13.390466 13.390466 4 25 4 z M 25 7 C 15.069709 7 7 15.069709 7 25 C 7 34.930291 15.069709 43 25 43 C 34.930291 43 43 34.930291 43 25 C 43 15.069709 34.930291 7 25 7 z M 25 9 C 33.849709 9 41 16.150291 41 25 C 41 33.849709 33.849709 41 25 41 C 16.150291 41 9 33.849709 9 25 C 9 16.150291 16.150291 9 25 9 z M 19 16 A 3 3 0 0 0 16 19 A 3 3 0 0 0 19 22 A 3 3 0 0 0 21.824219 20 L 28.173828 20 A 3 3 0 0 0 31 22 A 3 3 0 0 0 34 19 A 3 3 0 0 0 31 16 A 3 3 0 0 0 28.175781 18 L 21.826172 18 A 3 3 0 0 0 19 16 z M 19 28 A 3 3 0 0 0 16 31 A 3 3 0 0 0 19 34 A 3 3 0 0 0 21.824219 32 L 28.173828 32 A 3 3 0 0 0 31 34 A 3 3 0 0 0 34 31 A 3 3 0 0 0 31 28 A 3 3 0 0 0 28.175781 30 L 21.826172 30 A 3 3 0 0 0 19 28 z" transform="translate(17 -17)" font-weight="400" font-family="sans-serif" white-space="normal" overflow="visible"/>
</svg>
